<?xml version="1.0" encoding="UTF-8" standalone="no"?>
<!-- Created with Inkscape (http://www.inkscape.org/) -->

<svg
   xmlns:dc="http://purl.org/dc/elements/1.1/"
   xmlns:cc="http://creativecommons.org/ns#"
   xmlns:rdf="http://www.w3.org/1999/02/22-rdf-syntax-ns#"
   xmlns:svg="http://www.w3.org/2000/svg"
   xmlns="http://www.w3.org/2000/svg"
   xmlns:sodipodi="http://sodipodi.sourceforge.net/DTD/sodipodi-0.dtd"
   xmlns:inkscape="http://www.inkscape.org/namespaces/inkscape"
   width="392.151"
   height="347.54599"
   viewBox="0 0 392.151 347.546"
   id="svg2"
   version="1.1"
   inkscape:version="0.91 r13725"
   sodipodi:docname="logo.svg">
  <defs
     id="defs4" />
  <sodipodi:namedview
     id="base"
     pagecolor="#ffffff"
     bordercolor="#666666"
     borderopacity="1.0"
     inkscape:pageopacity="0.0"
     inkscape:pageshadow="2"
     inkscape:zoom="1.4"
     inkscape:cx="191.31793"
     inkscape:cy="158.49209"
     inkscape:document-units="px"
     inkscape:current-layer="layer1"
     showgrid="false"
     showguides="true"
     inkscape:window-width="1366"
     inkscape:window-height="715"
     inkscape:window-x="0"
     inkscape:window-y="27"
     inkscape:window-maximized="1"
     inkscape:snap-center="false"
     inkscape:object-nodes="true"
     inkscape:guide-bbox="true"
     inkscape:snap-nodes="true"
     inkscape:object-paths="false"
     inkscape:snap-bbox="false"
     inkscape:snap-bbox-edge-midpoints="true"
     inkscape:snap-smooth-nodes="false"
     units="px"
     inkscape:snap-others="false" />
  <metadata
     id="metadata7">
    <rdf:RDF>
      <cc:Work
         rdf:about="">
        <dc:format>image/svg+xml</dc:format>
        <dc:type
           rdf:resource="http://purl.org/dc/dcmitype/StillImage" />
        <dc:title></dc:title>
      </cc:Work>
    </rdf:RDF>
  </metadata>
  <g
     inkscape:label="Camada 1"
     inkscape:groupmode="layer"
     id="layer1"
     transform="translate(0,-704.81614)">
    <path
       style="color:#000000;font-style:normal;font-variant:normal;font-weight:normal;font-stretch:normal;font-size:medium;line-height:normal;font-family:sans-serif;text-indent:0;text-align:start;text-decoration:none;text-decoration-line:none;text-decoration-style:solid;text-decoration-color:#000000;letter-spacing:normal;word-spacing:normal;text-transform:none;direction:ltr;block-progression:tb;writing-mode:lr-tb;baseline-shift:baseline;text-anchor:start;white-space:normal;clip-rule:nonzero;display:inline;overflow:visible;visibility:visible;opacity:1;isolation:auto;mix-blend-mode:normal;color-interpolation:sRGB;color-interpolation-filters:linearRGB;solid-color:#000000;solid-opacity:1;fill:#1a1a1a;fill-opacity:1;fill-rule:nonzero;stroke:none;stroke-width:7;stroke-linecap:round;stroke-linejoin:round;stroke-miterlimit:4;stroke-dasharray:none;stroke-dashoffset:0;stroke-opacity:1;color-rendering:auto;image-rendering:auto;shape-rendering:auto;text-rendering:auto;enable-background:accumulate"
       d="m 196.0442,704.81693 c -19.3146,0.003 -38.62459,3.94736 -56.70703,11.81446 -0.0803,-0.0854 -0.15099,-0.17638 -0.23438,-0.25977 -4.5037,-4.50369 -11.91232,-4.50369 -16.41601,0 -4.5037,4.5037 -4.5037,11.91232 0,16.41602 4.50369,4.50369 11.91231,4.50369 16.41601,0 2.66415,-2.66415 3.73779,-6.34353 3.25,-9.83789 34.25967,-14.83155 73.12897,-14.83653 107.39258,-0.0137 -0.48636,3.49314 0.58885,7.17089 3.25195,9.83399 4.5037,4.5037 11.91233,4.5037 16.41602,0 4.5037,-4.5037 4.5037,-11.91232 0,-16.41602 -4.50369,-4.5037 -11.91232,-4.5037 -16.41602,0 -0.0844,0.0844 -0.1551,0.17728 -0.23632,0.26368 -18.08649,-7.86335 -37.40014,-11.8037 -56.7168,-11.80079 z m 65.16015,15.11524 c 1.17181,0 2.34349,0.45676 3.25782,1.37109 1.82865,1.82865 1.82865,4.68698 0,6.51563 -1.82866,1.82866 -4.68697,1.82866 -6.51563,0 -1.32839,-1.32838 -1.67774,-3.19652 -1.07617,-4.82227 0.20036,-0.28756 0.3564,-0.60359 0.46289,-0.9375 0.175,-0.26567 0.37745,-0.52003 0.61328,-0.75586 0.91433,-0.91433 2.08601,-1.37109 3.25781,-1.37109 z m -130.31054,0.0176 c 1.1718,0 2.34349,0.45676 3.25781,1.37109 0.26635,0.26635 0.48312,0.5596 0.67188,0.86328 0.0967,0.26585 0.22521,0.519 0.38281,0.75391 0.64122,1.64298 0.29426,3.55143 -1.05469,4.90039 -1.82866,1.82865 -4.68696,1.82865 -6.51562,0 -1.82865,-1.82866 -1.82865,-4.68892 0,-6.51758 0.91433,-0.91432 2.086,-1.37109 3.25781,-1.37109 z m 38.92969,21.48828 c -6.34718,0 -11.56641,5.21923 -11.56641,11.5664 0,6.18045 4.95225,11.27678 11.07226,11.54102 l 0,44.92773 c -0.97142,1.44031 -10.82326,16.07109 -16.59374,26.45313 -9.90547,17.82151 -17.51587,32.77585 -22.11133,45.37891 -4.59547,12.60306 -6.32113,22.99822 -3.54493,31.65039 2.77623,8.65217 10.24756,14.68503 21.57813,18.10937 11.33057,3.42433 26.81401,4.68326 47.46289,4.36914 20.59167,0.30773 36.04388,-0.95113 47.35352,-4.36914 11.33057,-3.42434 18.80189,-9.4572 21.57812,-18.10937 2.77623,-8.65217 1.05054,-19.04733 -3.54492,-31.65039 -4.59547,-12.60306 -12.20391,-27.5574 -22.10938,-45.37891 -5.7705,-10.38204 -15.62426,-25.01282 -16.5957,-26.45313 l 0,-44.92773 c 6.12001,-0.26424 11.07227,-5.36057 11.07227,-11.54102 0,-6.34717 -5.21924,-11.5664 -11.56641,-11.5664 l -52.48437,0 z m 0,7 52.48437,0 c 2.59025,0 4.56641,1.97615 4.56641,4.5664 0,2.59025 -1.97616,4.56641 -4.56641,4.56641 l -52.48437,0 c -2.59026,0 -4.56641,-1.97616 -4.56641,-4.56641 0,-2.59025 1.97615,-4.5664 4.56641,-4.5664 z m 6.50585,16.13281 39.47266,0 0,45.95117 a 3.50035,3.50035 0 0 0 0.59961,1.95899 c 0,0 11.14091,16.52565 16.87695,26.8457 9.83546,17.69553 17.30089,32.44308 21.65235,44.37695 0.0911,0.24987 0.15979,0.47929 0.24804,0.72657 -3.10458,1.32081 -6.08692,2.44095 -8.94726,3.36718 a 9.1071434,9.1071434 0 0 0 0.01,-0.25781 9.1071434,9.1071434 0 0 0 -9.10742,-9.10547 9.1071434,9.1071434 0 0 0 -9.10547,9.10547 9.1071434,9.1071434 0 0 0 0.88868,3.89844 c -24.64107,2.18281 -40.29957,-9.94247 -60.89844,-13.10938 a 9.9080868,9.9080868 0 0 0 0.0547,-0.94726 9.9080868,9.9080868 0 0 0 -9.90821,-9.90821 9.9080868,9.9080868 0 0 0 -9.9082,9.90821 9.9080868,9.9080868 0 0 0 0.0606,1.06445 c -3.18104,0.5282 -6.51474,1.32151 -10.02539,2.42383 4.45485,-11.41647 11.48128,-25.20795 20.56054,-41.54297 5.73605,-10.32005 16.87696,-26.8457 16.87696,-26.8457 a 3.50035,3.50035 0 0 0 0.5996,-1.95899 l 0,-7.17773 10.51954,0 c 4.73313,0.0669 4.73313,-7.06694 0,-7 l -10.51954,0 0,-5.41016 10.51954,0 c 4.73313,0.0669 4.73313,-7.06694 0,-7 l -10.51954,0 0,-5.41211 10.51954,0 c 4.73313,0.0669 4.73313,-7.06694 0,-7 l -10.51954,0 0,-6.95117 z m 142.18946,5.70313 c -2.97792,-10e-6 -5.95519,1.1251 -8.20703,3.37695 -4.5037,4.5037 -4.506,11.91427 -0.002,16.41797 2.66337,2.66337 6.3421,3.73899 9.83594,3.25195 14.83176,34.26004 14.83893,73.12689 0.0156,107.39063 -3.49288,-0.48606 -7.17111,0.58907 -9.83399,3.25195 -4.5037,4.50369 -4.50369,11.91231 0,16.41601 4.5037,4.50369 11.91232,4.5037 16.41602,0 4.50369,-4.50369 4.50369,-11.91231 0,-16.41601 -0.084,-0.0841 -0.17569,-0.15542 -0.26172,-0.23633 15.72533,-36.17059 15.7192,-77.25735 -0.0156,-113.42383 0.0859,-0.0808 0.17777,-0.15238 0.26172,-0.23633 4.5037,-4.5037 4.5037,-11.91037 0,-16.41406 l 0,-0.002 c -2.25184,-2.25185 -5.23106,-3.37695 -8.20898,-3.37695 z m -244.921871,0.0312 c -2.97792,0 -5.95518,1.12705 -8.20703,3.3789 -4.5037,4.50369 -4.5037,11.91036 0,16.41406 0.0846,0.0846 0.17705,0.15685 0.26367,0.23829 -15.72563,36.17081 -15.72145,77.25705 0.0137,113.42382 -0.0853,0.0802 -0.17647,0.15108 -0.25977,0.23438 -4.5037,4.5037 -4.5037,11.91036 0,16.41406 4.5037,4.50369 11.91036,4.5037 16.41406,0 4.503695,-4.50369 4.503695,-11.91036 0,-16.41406 -2.66392,-2.66393 -6.34185,-3.73944 -9.83593,-3.25195 -14.83161,-34.25965 -14.83627,-73.12715 -0.0137,-107.39063 3.49288,0.48606 7.16916,-0.59102 9.83203,-3.25391 4.503705,-4.50369 4.503705,-11.91037 0,-16.41406 -2.25185,-2.25185 -5.22911,-3.3789 -8.20703,-3.3789 z m 244.921871,6.92382 c 1.17181,0 2.34348,0.45677 3.25781,1.3711 l 0,0.002 c 1.82865,1.82866 1.82865,4.68697 0,6.51563 -0.25293,0.25292 -0.52753,0.46152 -0.81445,0.64453 -0.29618,0.10194 -0.57734,0.24317 -0.83594,0.41992 -1.63559,0.62337 -3.52567,0.27539 -4.86523,-1.06445 -1.82865,-1.82866 -1.82827,-4.68893 0,-6.51758 0.91433,-0.91433 2.086,-1.3711 3.25781,-1.3711 z m -244.921871,0.0332 c 1.17181,0 2.34349,0.45677 3.25782,1.37109 1.82866,1.82866 1.82865,4.68697 0,6.51563 -1.33798,1.33796 -3.22552,1.68634 -4.85938,1.0664 -0.2576,-0.17507 -0.53741,-0.31497 -0.83203,-0.41601 -0.28997,-0.18406 -0.56882,-0.39499 -0.82422,-0.65039 -1.82865,-1.82865 -1.82865,-4.68697 0,-6.51563 0.91433,-0.91432 2.08601,-1.37109 3.25781,-1.37109 z m 109.349601,63.9414 a 13.392858,13.392858 0 0 0 -13.39258,13.39258 13.392858,13.392858 0 0 0 13.39258,13.39258 13.392858,13.392858 0 0 0 13.39258,-13.39258 13.392858,13.392858 0 0 0 -13.39258,-13.39258 z m 18.11719,23.30082 a 9.1071434,9.1071434 0 0 0 -9.10742,9.10743 9.1071434,9.1071434 0 0 0 9.10742,9.10742 9.1071434,9.1071434 0 0 0 9.10742,-9.10742 9.1071434,9.1071434 0 0 0 -9.10742,-9.10743 z m 117.47266,43.03711 c 0.55553,0 1.10861,0.11091 1.63672,0.31641 0.23038,0.15377 0.47822,0.27965 0.73828,0.375 0.31058,0.19102 0.61098,0.40785 0.88281,0.67969 1.82866,1.82866 1.82865,4.68892 0,6.51758 -1.82866,1.82865 -4.68697,1.82865 -6.51563,0 -1.82865,-1.82866 -1.82866,-4.68892 0,-6.51758 0.91433,-0.91433 2.08601,-1.3711 3.25782,-1.3711 z m -244.921871,0.0312 c 1.17181,0 2.34348,0.45677 3.25781,1.3711 1.82865,1.82865 1.82865,4.68696 0,6.51562 -1.82866,1.82865 -4.68697,1.82865 -6.51562,0 -1.82866,-1.82866 -1.82866,-4.68696 0,-6.51562 0.21685,-0.21685 0.45098,-0.40294 0.69336,-0.56836 0.38745,-0.1142 0.7522,-0.2946 1.07812,-0.5332 0.48325,-0.16895 0.98264,-0.26954 1.48633,-0.26954 z m 268.691401,22.29102 a 3.50035,3.50035 0 0 0 -2.2793,0.91406 l -34.52344,31.5293 -14.98633,-15.97852 a 3.50035,3.50035 0 0 0 -2.49218,-1.10351 3.50035,3.50035 0 0 0 -2.45508,0.94531 c -24.26188,22.75565 -56.24448,35.40818 -89.50781,35.40818 -33.24988,0 -65.22172,-12.64165 -89.48047,-35.38084 a 3.50035,3.50035 0 0 0 -4.94727,0.16016 l -14.980456,15.98047 -34.529295,-31.5332 a 3.50035,3.50035 0 0 0 -2.21875,-0.91211 3.50035,3.50035 0 0 0 -3.64063,3.51953 l 0.29688,44.83979 -43.2519584,2.3106 a 3.50035,3.50035 0 0 0 -2.17187,6.0781 l 50.6660084,46.26762 a 3.50035,3.50035 0 0 0 0.20313,0.168 3.50035,3.50035 0 0 0 0.043,0.035 3.50035,3.50035 0 0 0 0.23047,0.1582 3.50035,3.50035 0 0 0 0.0566,0.039 3.50035,3.50035 0 0 0 0.23242,0.1269 3.50035,3.50035 0 0 0 0.0781,0.041 3.50035,3.50035 0 0 0 0.20704,0.088 3.50035,3.50035 0 0 0 0.12109,0.049 3.50035,3.50035 0 0 0 0.21289,0.066 3.50035,3.50035 0 0 0 0.12109,0.035 3.50035,3.50035 0 0 0 0.19336,0.041 3.50035,3.50035 0 0 0 0.15235,0.029 3.50035,3.50035 0 0 0 0.1914,0.019 3.50035,3.50035 0 0 0 0.15625,0.014 3.50035,3.50035 0 0 0 0.19727,0 3.50035,3.50035 0 0 0 0.15234,0 3.50035,3.50035 0 0 0 0.18946,-0.019 3.50035,3.50035 0 0 0 0.1621,-0.018 3.50035,3.50035 0 0 0 0.1543,-0.031 3.50035,3.50035 0 0 0 0.1875,-0.039 3.50035,3.50035 0 0 0 0.14063,-0.043 3.50035,3.50035 0 0 0 0.19922,-0.064 3.50035,3.50035 0 0 0 0.0117,0 3.50035,3.50035 0 0 0 0.28711,-0.123 3.50035,3.50035 0 0 0 0.0117,-0.01 3.50035,3.50035 0 0 0 0.17774,-0.098 3.50035,3.50035 0 0 0 0.13281,-0.076 3.50035,3.50035 0 0 0 0.11328,-0.076 3.50035,3.50035 0 0 0 0.18164,-0.127 3.50035,3.50035 0 0 0 0.008,-0.01 3.50035,3.50035 0 0 0 0.0859,-0.072 3.50035,3.50035 0 0 0 0.16602,-0.1426 3.50035,3.50035 0 0 0 0.18554,-0.1875 l 18.65235,-20.4238 c 34.682301,25.9063 76.981661,40.1035 120.662101,40.1035 43.6946,0 86.00404,-14.2091 120.6914,-40.1308 l 18.65039,20.4238 a 3.50035,3.50035 0 0 0 2.12891,1.1094 3.50035,3.50035 0 0 0 0.34961,0.027 3.50035,3.50035 0 0 0 1.99414,-0.5508 3.50035,3.50035 0 0 0 0.4707,-0.3613 l 50.66602,-46.26762 a 3.50035,3.50035 0 0 0 -2.17188,-6.0781 l -43.25195,-2.3106 0.29688,-44.83983 a 3.50035,3.50035 0 0 0 -3.58008,-3.52148 z m -3.47266,11.48047 -0.26562,40.17385 a 3.50035,3.50035 0 0 0 3.3125,3.5175 l 38.24609,2.043 -39.83203,36.37312 -5.20703,-28.49421 a 3.50035,3.50035 0 0 0 -0.93555,-2.1054 l -23.86133,-25.44146 28.54297,-26.0664 z m -285.515611,0.0273 28.54882,26.07422 -23.85351,25.44724 0,0 a 3.50035,3.50035 0 0 0 -0.0156,0.018 3.50035,3.50035 0 0 0 -0.16015,0.1895 3.50035,3.50035 0 0 0 -0.0508,0.059 3.50035,3.50035 0 0 0 -0.0117,0.016 3.50035,3.50035 0 0 0 -0.125,0.1816 3.50035,3.50035 0 0 0 -0.0625,0.088 3.50035,3.50035 0 0 0 -0.0234,0.041 3.50035,3.50035 0 0 0 -0.0918,0.168 3.50035,3.50035 0 0 0 -0.0527,0.096 3.50035,3.50035 0 0 0 -0.0117,0.027 3.50035,3.50035 0 0 0 -0.0918,0.2168 3.50035,3.50035 0 0 0 -0.0332,0.076 3.50035,3.50035 0 0 0 -0.01,0.029 3.50035,3.50035 0 0 0 -0.0605,0.1894 3.50035,3.50035 0 0 0 -0.0352,0.1133 3.50035,3.50035 0 0 0 -0.0117,0.053 3.50035,3.50035 0 0 0 -0.043,0.1934 l -5.26562,28.81831 -39.83203,-36.37102 38.24609,-2.043 a 3.50035,3.50035 0 0 0 3.3125,-3.5176 l -0.26562,-40.17382 z m 96.279281,2.20313 a 1.1464317,1.1464317 0 0 0 -0.83984,0.36914 l -2.5,2.72265 -3.66016,-0.51562 a 1.1464317,1.1464317 0 0 0 -1.1582,1.69726 l 1.81641,3.21875 -1.62305,3.32032 a 1.1464317,1.1464317 0 0 0 1.25781,1.6289 l 3.6211,-0.73242 2.6582,2.56836 a 1.1464317,1.1464317 0 0 0 1.93555,-0.69336 l 0.42382,-3.67187 3.26368,-1.73243 a 1.1464317,1.1464317 0 0 0 -0.0605,-2.05468 l -3.36133,-1.53711 -0.64062,-3.64063 a 1.1464317,1.1464317 0 0 0 -0.79297,-0.89648 1.1464317,1.1464317 0 0 0 -0.33985,-0.0508 z m 92.95703,0 a 1.1464317,1.1464317 0 0 0 -0.33984,0.0508 1.1464317,1.1464317 0 0 0 -0.79297,0.89648 l -0.64062,3.64063 -3.36133,1.53711 a 1.1464317,1.1464317 0 0 0 -0.0606,2.05468 l 3.26367,1.73243 0.42383,3.67187 a 1.1464317,1.1464317 0 0 0 1.93555,0.69336 l 2.6582,-2.56836 3.6211,0.73242 a 1.1464317,1.1464317 0 0 0 1.25781,-1.6289 l -1.62305,-3.32032 1.81641,-3.21875 a 1.1464317,1.1464317 0 0 0 -1.15821,-1.69726 l -3.66015,0.51562 -2.5,-2.72265 a 1.1464317,1.1464317 0 0 0 -0.83985,-0.36914 z m -46.20117,0.49804 a 2.2487767,2.2487767 0 0 0 -2.07031,1.20704 l -3.35547,6.42578 -7.19726,0.8789 a 2.2487767,2.2487767 0 0 0 -1.33204,3.80664 l 5.07422,5.17774 -1.38867,7.11523 a 2.2487767,2.2487767 0 0 0 3.20899,2.44336 l 6.49218,-3.22656 6.33789,3.51953 a 2.2487767,2.2487767 0 0 0 3.31641,-2.29492 l -1.0625,-7.17188 5.30469,-4.9414 a 2.2487767,2.2487767 0 0 0 -1.15821,-3.86328 l -7.14843,-1.20499 -3.06055,-6.57227 a 2.2487767,2.2487767 0 0 0 -1.96094,-1.29883 z m 91.33985,9.47657 4.5957,4.89843 -8.875,7.4961 a 2.0002,2.0002 0 1 0 2.58203,3.05468 l 9.0332,-7.62695 5.7793,6.16211 -8.68164,7.33203 a 2.0006203,2.0006203 0 0 0 2.58203,3.05661 l 8.83985,-7.46676 5.66992,6.04492 -8.63086,7.28904 a 2.0002,2.0002 0 1 0 2.58008,3.0567 l 8.79101,-7.4239 5.39063,5.7461 -8.9336,7.54491 a 2.0002,2.0002 0 1 0 2.58008,3.0547 l 9.09375,-7.67771 6.44727,6.87501 c -0.0876,0.079 -0.17605,0.1572 -0.26368,0.2363 -35.70841,32.18221 -82.05052,50.16211 -130.21093,50.16211 -48.25921,0 -94.69687,-18.0498 -130.435541,-50.35741 l 5.67969,-6.05861 8.07617,6.82031 a 2.0002,2.0002 0 1 0 2.58008,-3.0547 l -7.91797,-6.68751 5.38867,-5.748 7.777345,6.5684 a 2.0002,2.0002 0 1 0 2.58008,-3.0567 l -7.619145,-6.4336 5.669925,-6.04685 7.82813,6.61325 a 2.0006203,2.0006203 0 0 0 2.58203,-3.05661 l -7.67188,-6.47851 5.77735,-6.16407 8.025376,6.77539 a 2.0002,2.0002 0 1 0 2.58203,-3.05468 l -7.867175,-6.64453 5.363265,-5.72266 c 25.21696,22.45893 57.75042,35.00197 91.60157,35.00197 33.8655,0 66.41016,-12.55333 91.63086,-35.02931 z m -17.22657,23.36132 -4.84961,2.37499 6.68555,13.65041 -3.77148,1.8477 -6.68555,-13.65041 -4.84961,2.375 16.16602,33.00392 4.84961,-2.377 -7.03907,-14.36721 3.77149,-1.8476 7.03906,14.36721 4.84961,-2.375 -16.16602,-33.00201 z m -148.36914,0.47459 c -0.33644,0 -0.66036,0.022 -0.96875,0.072 -1.23354,0.2022 -2.27118,0.7885 -3.13281,1.4668 -1.01968,0.765 -1.91171,1.8236 -2.62695,3.0859 l -10.01563,19.19152 c -0.64972,1.3529 -1.01018,2.6889 -1.05468,3.9628 -0.0638,1.0948 0.0738,2.2377 0.61328,3.3653 0.51636,1.1719 1.5488,2.2199 3.14453,3.0527 1.59573,0.8329 3.00114,1.0571 4.25781,0.8106 1.23354,-0.2022 2.29462,-0.7202 3.15625,-1.3985 1.01968,-0.765 1.91007,-1.8222 2.64844,-3.1289 l 2.33593,-4.4765 -4.47656,-2.3379 -2.33594,4.4765 c -0.25448,0.4876 -0.50781,0.8646 -0.80273,1.1055 -0.56865,0.5492 -1.24613,0.8719 -2.26562,0.3398 -0.39894,-0.2082 -0.63819,-0.5025 -0.74415,-0.8398 -0.18878,-0.7189 -0.13095,-1.4777 0.31055,-2.4316 l 10.01758,-19.19342 c 0.27567,-0.4201 0.52765,-0.7968 0.8457,-1.082 0.52239,-0.4606 1.24569,-0.8732 2.08789,-0.4336 0.48758,0.2545 0.81593,0.5963 0.92188,0.9336 0.20997,0.7864 0.10722,1.5236 -0.35547,2.4101 l -2.33594,4.4766 4.47657,2.33591 2.33789,-4.47651 c 0.62658,-1.3086 0.98479,-2.644 1.02929,-3.918 0.0638,-1.0947 -0.0953,-2.306 -0.63476,-3.4336 -0.53949,-1.1276 -1.50388,-2.1945 -3.09961,-3.0273 -1.19681,-0.6249 -2.32465,-0.8971 -3.33399,-0.9083 z m 13.3418,6.3047 -12.85547,34.42772 5.05859,1.8887 5.59766,-14.9883 3.9336,1.4688 -5.59571,14.9902 5.0586,1.8887 12.85546,-34.42972 -5.06054,-1.8887 -5.31641,14.24032 -3.93359,-1.46881 5.3164,-14.24021 -5.05859,-1.8887 z m 113.11523,2.9316 c -0.72125,0.017 -1.50651,0.1561 -2.35742,0.4493 -1.70182,0.5863 -2.86136,1.5139 -3.5625,2.5488 -0.70114,1.0348 -0.99014,2.1931 -1.08984,3.28521 -0.14538,1.2664 0.0105,2.6401 0.43555,4.0273 l 7.05273,20.46871 c 0.53591,1.4019 1.25968,2.5802 2.1543,3.4883 0.75121,0.7989 1.67546,1.4858 2.86523,1.8692 1.20606,0.4306 2.67513,0.4008 4.37695,-0.1856 1.70181,-0.5863 2.83274,-1.453 3.51758,-2.5351 0.70114,-1.0349 1.05265,-2.16 1.15235,-3.252 0.14538,-1.2664 -0.01,-2.6417 -0.45118,-4.0762 l -1.64648,-4.7734 -4.77344,1.6445 1.64453,4.7754 c 0.17918,0.52 0.2778,0.9601 0.25,1.3399 0.008,0.7905 -0.22131,1.5043 -1.30859,1.8789 -0.42545,0.1466 -0.80524,0.1197 -1.12305,-0.035 -0.65189,-0.3572 -1.16341,-0.922 -1.55273,-1.8985 l -7.05274,-20.46871 c -0.1156,-0.489 -0.21462,-0.9304 -0.20312,-1.3574 0.0246,-0.696 0.22096,-1.505 1.11914,-1.8145 0.52,-0.17911 0.9947,-0.18421 1.3125,-0.029 0.71546,0.38811 1.1801,0.96861 1.50586,1.91411 l 1.64453,4.7754 4.77539,-1.6446 -1.64453,-4.7754 c -0.51962,-1.35461 -1.24405,-2.53321 -2.13867,-3.44141 -0.75121,-0.7988 -1.73797,-1.5151 -2.92774,-1.8984 -0.59488,-0.1917 -1.25335,-0.2964 -1.97461,-0.2793 z m -94.13281,3.7149 -8.64844,35.71682 12.00196,2.9082 1.30664,-5.3945 -6.75391,-1.6368 2.37695,-9.8164 4.85938,1.1778 1.38867,-5.7344 -4.85937,-1.1777 2.27148,-9.37891 6.75391,1.6367 1.30664,-5.3946 -12.00391,-2.90621 z m 81.30664,0.5078 -12.05664,2.67191 7.95117,35.88081 12.05664,-2.6718 -1.20117,-5.42 -6.78515,1.5039 -2.18555,-9.8593 4.88281,-1.0821 -1.27734,-5.7617 -4.88086,1.0821 -2.08789,-9.42001 6.78515,-1.5039 -1.20117,-5.41991 z m -65.82812,3.22851 -3.81641,36.55281 4.97266,0.5175 2.56054,-24.5156 0.29883,0.031 0.0371,1.5625 1.03321,23.332 2.2871,0.2403 5.83008,-22.6172 0.36133,-1.5215 0.29688,0.031 -2.5586,24.5176 4.97266,0.5195 3.8164,-36.55271 -6.56445,-0.6836 -4.92773,16.37501 -0.45117,1.9141 -0.0996,-0.01 -0.0449,-1.9649 -1.43945,-17.04301 -6.56445,-0.6855 z m 50.27929,0.1387 -15.50976,1.6816 0.59765,5.51761 5.07032,-0.5508 3.36523,31.0196 5.36914,-0.5821 -3.36523,-31.0195 5.07031,-0.54881 -0.59766,-5.5176 z m -19.58593,1.6875 -5.40039,0.072 0.49023,36.74611 5.39844,-0.07 -0.48828,-36.74801 z"
       id="path4214"
       inkscape:connector-curvature="0" />
  </g>
</svg>
